name rise30.6535peak61.5555fall82.9339.mot
datacolumns 19
datarows 23
range 3.20331400000000 3.23998600000000
endheader
time	ground_force1_vx	ground_force1_vy	ground_force1_vz	ground_force1_px	ground_force1_py	ground_force1_pz	ground_force2_vx	ground_force2_vy	ground_force2_vz	ground_force2_px	ground_force2_py	ground_force2_pz	ground_torque1_x	ground_torque1_y	ground_torque1_z	ground_torque2_x	ground_torque2_y	ground_torque2_z	
3.20331400000000	-6.76424600000000	42.49621300000000	-10.68821400000000	0.28721100000000	0.00000000000000	0.09697500000000	-49.85583900000000	808.08891800000004	-51.12371600000000	0.09668600000000	0.00000000000000	-0.07915300000000	0.00000000000000	-6.35973300000000	0.00000000000000	0.00000000000000	-16.03673100000000	0.00000000000000	
3.20498100000000	-7.36463500000000	49.79413400000000	-12.05277700000000	0.29169800000000	0.00000000000000	0.09765000000000	-50.75566100000000	805.47718999999995	-50.76488400000000	0.09574300000000	0.00000000000000	-0.07905800000000	0.00000000000000	-7.26751700000000	0.00000000000000	0.00000000000000	-16.03426900000000	0.00000000000000	
3.20665200000000	-7.82141600000000	57.17992400000000	-13.30500100000000	0.29588500000000	0.00000000000000	0.09826800000000	-51.67693100000000	802.74274300000002	-50.38747000000000	0.09480100000000	0.00000000000000	-0.07896000000000	0.00000000000000	-8.12892600000000	0.00000000000000	0.00000000000000	-16.03538400000000	0.00000000000000	
3.20831500000000	-8.11559800000000	64.55804400000000	-14.41669000000000	0.29981900000000	0.00000000000000	0.09883800000000	-52.61840700000000	799.88211000000001	-49.99128100000000	0.09386200000000	0.00000000000000	-0.07885900000000	0.00000000000000	-8.92567700000000	0.00000000000000	0.00000000000000	-16.03991900000000	0.00000000000000	
3.20998900000000	-8.23607600000000	71.85631600000001	-15.36890600000000	0.30353500000000	0.00000000000000	0.09936600000000	-53.57871700000000	796.89172699999995	-49.57613900000000	0.09292700000000	0.00000000000000	-0.07875500000000	0.00000000000000	-9.64461000000000	0.00000000000000	0.00000000000000	-16.04769400000000	0.00000000000000	
3.21165200000000	-8.17948800000000	79.02813200000000	-16.15212500000000	0.30706300000000	0.00000000000000	0.09985800000000	-54.55635900000000	793.76794900000004	-49.14188500000000	0.09199700000000	0.00000000000000	-0.07864700000000	0.00000000000000	-10.27796100000000	0.00000000000000	0.00000000000000	-16.05850600000000	0.00000000000000	
3.21331900000000	-7.94945200000000	86.05220000000000	-16.76560400000000	0.31042500000000	0.00000000000000	0.10031900000000	-55.54970400000000	790.50705900000003	-48.68837800000000	0.09107300000000	0.00000000000000	-0.07853600000000	0.00000000000000	-10.82315700000000	0.00000000000000	0.00000000000000	-16.07212600000000	0.00000000000000	
3.21498700000000	-7.55537900000000	92.93023599999999	-17.21613400000000	0.31364100000000	0.00000000000000	0.10075400000000	-56.55699900000000	787.10528499999998	-48.21550200000000	0.09015700000000	0.00000000000000	-0.07842200000000	0.00000000000000	-11.28221800000000	0.00000000000000	0.00000000000000	-16.08830300000000	0.00000000000000	
3.21664800000000	-7.01100700000000	99.68316799999999	-17.51638700000000	0.31672600000000	0.00000000000000	0.10116500000000	-57.57636800000000	783.55881499999998	-47.72316600000000	0.08925000000000	0.00000000000000	-0.07830400000000	0.00000000000000	-11.66087600000000	0.00000000000000	0.00000000000000	-16.10676200000000	0.00000000000000	
3.21832100000000	-6.33284300000000	106.34641300000000	-17.68307600000000	0.31969300000000	0.00000000000000	0.10155500000000	-58.60581700000000	779.86381500000005	-47.21130400000000	0.08835200000000	0.00000000000000	-0.07818200000000	0.00000000000000	-11.96755400000000	0.00000000000000	0.00000000000000	-16.12720700000000	0.00000000000000	
3.21998700000000	-5.53865300000000	112.96478800000000	-17.73509500000000	0.32255100000000	0.00000000000000	0.10192600000000	-59.64323800000000	776.01644499999998	-46.67988200000000	0.08746500000000	0.00000000000000	-0.07805700000000	0.00000000000000	-12.21227900000000	0.00000000000000	0.00000000000000	-16.14932200000000	0.00000000000000	
3.22165000000000	-4.64610600000000	119.58752600000000	-17.69181800000000	0.32530900000000	0.00000000000000	0.10228200000000	-60.68641400000000	772.01287500000001	-46.12889400000000	0.08659100000000	0.00000000000000	-0.07792900000000	0.00000000000000	-12.40566800000000	0.00000000000000	0.00000000000000	-16.17277000000000	0.00000000000000	
3.22332000000000	-3.67167100000000	126.26378699999999	-17.57163600000000	0.32797400000000	0.00000000000000	0.10262200000000	-61.73302400000000	767.84930699999995	-45.55837100000000	0.08572800000000	0.00000000000000	-0.07779600000000	0.00000000000000	-12.55802500000000	0.00000000000000	0.00000000000000	-16.19719500000000	0.00000000000000	
3.22498900000000	-2.62978600000000	133.03891100000001	-17.39083200000000	0.33055100000000	0.00000000000000	0.10294900000000	-62.78064700000000	763.52199499999995	-44.96837700000000	0.08488000000000	0.00000000000000	-0.07766000000000	0.00000000000000	-12.67861500000000	0.00000000000000	0.00000000000000	-16.22222300000000	0.00000000000000	
3.22665400000000	-1.53234400000000	139.95160400000000	-17.16281100000000	0.33304600000000	0.00000000000000	0.10326500000000	-63.82677200000000	759.02726399999995	-44.35901700000000	0.08404700000000	0.00000000000000	-0.07752100000000	0.00000000000000	-12.77514700000000	0.00000000000000	0.00000000000000	-16.24746500000000	0.00000000000000	
3.22831400000000	-0.38845300000000	147.03207499999999	-16.89767800000000	0.33546200000000	0.00000000000000	0.10357000000000	-64.86880100000000	754.36153200000001	-43.73043100000000	0.08322900000000	0.00000000000000	-0.07737800000000	0.00000000000000	-12.85346000000000	0.00000000000000	0.00000000000000	-16.27251600000000	0.00000000000000	
3.22998200000000	0.79554200000000	154.30111199999999	-16.60214400000000	0.33780100000000	0.00000000000000	0.10386500000000	-65.90405900000000	749.52133100000003	-43.08280400000000	0.08242700000000	0.00000000000000	-0.07723100000000	0.00000000000000	-12.91740600000000	0.00000000000000	0.00000000000000	-16.29695500000000	0.00000000000000	
3.23165000000000	2.01583500000000	161.77000000000001	-16.27969800000000	0.34006600000000	0.00000000000000	0.10415100000000	-66.92979800000001	744.50333300000000	-42.41636200000000	0.08164300000000	0.00000000000000	-0.07708000000000	0.00000000000000	-12.96890100000000	0.00000000000000	0.00000000000000	-16.32035400000000	0.00000000000000	
3.23332000000000	3.27077700000000	169.44111699999999	-15.93099500000000	0.34226000000000	0.00000000000000	0.10442900000000	-67.94320999999999	739.30436999999995	-41.73137600000000	0.08087700000000	0.00000000000000	-0.07692600000000	0.00000000000000	-13.00811900000000	0.00000000000000	0.00000000000000	-16.34227000000000	0.00000000000000	
3.23498300000000	4.56040700000000	177.30905400000000	-15.55437800000000	0.34438200000000	0.00000000000000	0.10470000000000	-68.94143099999999	733.92145900000003	-41.02816100000000	0.08012800000000	0.00000000000000	-0.07676800000000	0.00000000000000	-13.03377700000000	0.00000000000000	0.00000000000000	-16.36225400000000	0.00000000000000	
3.23665200000000	5.88593300000000	185.36207099999999	-15.14648100000000	0.34643500000000	0.00000000000000	0.10496400000000	-69.92155300000000	728.35182299999997	-40.30708100000000	0.07939900000000	0.00000000000000	-0.07660600000000	0.00000000000000	-13.04348700000000	0.00000000000000	0.00000000000000	-16.37984700000000	0.00000000000000	
3.23831800000000	7.24922100000000	193.58371900000000	-14.70285400000000	0.34841800000000	0.00000000000000	0.10522100000000	-70.88063000000000	722.59291399999995	-39.56854400000000	0.07868900000000	0.00000000000000	-0.07644100000000	0.00000000000000	-13.03411900000000	0.00000000000000	0.00000000000000	-16.39458900000000	0.00000000000000	
3.23998600000000	8.65232300000000	201.95448200000001	-14.21855000000000	0.35033200000000	0.00000000000000	0.10547300000000	-71.81569000000000	716.64243599999998	-38.81301000000000	0.07799900000000	0.00000000000000	-0.07627200000000	0.00000000000000	-13.00216900000000	0.00000000000000	0.00000000000000	-16.40601300000000	0.00000000000000	
